<?xml version="1.0" encoding="utf-8"?><svg version="1.1" id="Layer_1" xmlns="http://www.w3.org/2000/svg" xmlns:xlink="http://www.w3.org/1999/xlink" x="0px" y="0px" viewBox="0 0 122.88 86.26" style="enable-background:new 0 0 122.88 86.26" xml:space="preserve"><style type="text/css">.st0{fill-rule:evenodd;clip-rule:evenodd;}</style><g><path class="st0" d="M48.44,54.94c1.59,0,2.87,1.29,2.87,2.87c0,1.59-1.29,2.87-2.87,2.87s-2.87-1.29-2.87-2.87 C45.57,56.22,46.85,54.94,48.44,54.94L48.44,54.94z M84.41,9.23c-0.54,0.48-1.35,0.42-1.83-0.1c-0.48-0.54-0.42-1.35,0.1-1.83 C88.22,2.4,94.07-0.1,100,0c5.78,0.1,11.55,2.66,17.09,7.87c0.52,0.49,0.55,1.31,0.06,1.83c-0.49,0.52-1.31,0.55-1.83,0.06 C110.27,5,105.08,2.68,99.96,2.59C94.69,2.5,89.44,4.78,84.39,9.25L84.41,9.23L84.41,9.23z M7.27,9.23 c-0.54,0.48-1.35,0.42-1.83-0.1C4.97,8.59,5.03,7.77,5.55,7.3C11.08,2.4,16.93-0.1,22.87,0c5.78,0.1,11.55,2.66,17.09,7.87 c0.52,0.49,0.55,1.31,0.06,1.83c-0.49,0.52-1.31,0.55-1.83,0.06C33.14,5,27.95,2.68,22.83,2.59C17.56,2.5,12.3,4.78,7.26,9.25 L7.27,9.23L7.27,9.23z M99.89,20.13c2.11,0,3.84,1.71,3.84,3.84c0,1.32-0.67,2.5-1.7,3.19v14.88h17.49c0.93,0,1.77,0.38,2.38,0.99 c0.61,0.61,0.99,1.45,0.99,2.38v31.65c0,0.93-0.38,1.77-0.99,2.38c-0.61,0.61-1.45,0.99-2.38,0.99h-10.74v5.84H90.99v-5.84H31.25 v5.84H13.46v-5.84H3.37c-0.93,0-1.77-0.38-2.38-0.99C0.38,78.82,0,77.98,0,77.05V45.4c0-0.92,0.38-1.76,0.99-2.37l0,0l0,0 c0.61-0.61,1.45-0.99,2.38-0.99H20.8V27.27c-1.13-0.67-1.89-1.9-1.89-3.31c0-2.11,1.71-3.84,3.84-3.84c2.11,0,3.84,1.71,3.84,3.84 c0,1.36-0.71,2.55-1.77,3.24v14.83h73.19V27.32c-1.17-0.66-1.96-1.91-1.96-3.35C96.05,21.85,97.76,20.13,99.89,20.13L99.89,20.13z M91.27,16.08c-0.55,0.45-1.37,0.37-1.82-0.19c-0.45-0.55-0.37-1.37,0.19-1.82c3.23-2.63,6.74-3.99,10.28-4 c3.47-0.02,6.95,1.28,10.23,3.94c0.55,0.45,0.64,1.27,0.19,1.82c-0.45,0.55-1.27,0.64-1.82,0.19c-2.8-2.28-5.72-3.38-8.59-3.38 c-2.95,0.01-5.89,1.18-8.66,3.42L91.27,16.08L91.27,16.08z M14.13,16.08c-0.55,0.45-1.37,0.37-1.82-0.19 c-0.45-0.55-0.37-1.37,0.19-1.82c3.23-2.63,6.74-3.99,10.28-4c3.47-0.02,6.95,1.28,10.23,3.94c0.55,0.45,0.64,1.27,0.19,1.82 c-0.45,0.55-1.27,0.64-1.82,0.19c-2.8-2.28-5.72-3.38-8.59-3.38c-2.95,0.01-5.89,1.18-8.66,3.42L14.13,16.08L14.13,16.08z M118.86,46.06H4.02V76.4h114.84V46.06L118.86,46.06z M12.36,55.26h11.17V61H12.36V55.26L12.36,55.26z M36.47,54.94 c1.59,0,2.87,1.29,2.87,2.87c0,1.59-1.29,2.87-2.87,2.87c-1.59,0-2.87-1.29-2.87-2.87C33.59,56.22,34.88,54.94,36.47,54.94 L36.47,54.94z"/></g></svg>