<svg width="122.88" height="86.26" xmlns="http://www.w3.org/2000/svg">
 <style type="text/css">.st0{fill-rule:evenodd;clip-rule:evenodd;}</style>

 <g>
  <title>background</title>
  <rect fill="none" id="canvas_background" height="514" width="514" y="-1" x="-1"/>
 </g>
 <g>
  <title>Layer 1</title>
  <g id="svg_1">
   <path id="svg_2" d="m48.44,54.94c1.59,0 2.87,1.29 2.87,2.87c0,1.59 -1.29,2.87 -2.87,2.87s-2.87,-1.29 -2.87,-2.87c0,-1.59 1.28,-2.87 2.87,-2.87l0,0zm71.08,-12.9c0.93,0 1.77,0.38 2.38,0.99c0.61,0.61 0.99,1.45 0.99,2.38l0,31.65c0,0.93 -0.38,1.77 -0.99,2.38c-0.61,0.61 -1.45,0.99 -2.38,0.99l-10.74,0l0,5.84l-17.79,0l0,-5.84l-59.74,0l0,5.84l-17.79,0l0,-5.84l-10.09,0c-0.93,0 -1.77,-0.38 -2.38,-0.99c-0.61,-0.62 -0.99,-1.46 -0.99,-2.39l0,-31.65c0,-0.92 0.38,-1.76 0.99,-2.37l0,0l0,0c0.61,-0.61 1.45,-0.99 2.38,-0.99l116.15,0zm-0.66,4.02l-114.84,0l0,30.34l114.84,0l0,-30.34l0,0zm-106.5,9.2l11.17,0l0,5.74l-11.17,0l0,-5.74l0,0zm24.11,-0.32c1.59,0 2.87,1.29 2.87,2.87c0,1.59 -1.29,2.87 -2.87,2.87c-1.59,0 -2.87,-1.29 -2.87,-2.87c-0.01,-1.59 1.28,-2.87 2.87,-2.87l0,0z" class="st0"/>
   <rect stroke="#000000" id="svg_3" height="15" width="15" y="54.204959" x="92.252779" stroke-width="2" fill="none"/>
   <path stroke="#000000" id="svg_7" d="m98.500703,58.466567l1.267614,-1.9671l1.267613,1.9671l-0.633806,0l0,1.976565l-1.267614,0l0,-1.976565l-0.633807,0z" stroke-width="0.1" fill="#000000"/>
   <path transform="rotate(-180 99.768310546875,65.00652313232422) " stroke="#000000" id="svg_8" d="m98.500703,65.001778l1.267614,-1.9671l1.267613,1.9671l-0.633806,0l0,1.976565l-1.267614,0l0,-1.976565l-0.633807,0z" stroke-width="0.1" fill="#000000"/>
   <path transform="rotate(-90 102.30349731445312,61.73890304565429) " stroke="#000000" id="svg_9" d="m101.035914,61.734173l1.267614,-1.9671l1.267613,1.9671l-0.633806,0l0,1.976565l-1.267614,0l0,-1.976565l-0.633807,0z" stroke-width="0.1" fill="#000000"/>
   <path transform="rotate(90 97.23312377929689,61.738903045654304) " stroke="#000000" id="svg_10" d="m95.965492,61.734173l1.267614,-1.9671l1.267613,1.9671l-0.633806,0l0,1.976565l-1.267614,0l0,-1.976565l-0.633807,0z" stroke-width="0.1" fill="#000000"/>
  </g>
 </g>
</svg>