<svg id="visual" viewBox="0 0 900 300" width="900" height="300" xmlns="http://www.w3.org/2000/svg" xmlns:xlink="http://www.w3.org/1999/xlink" version="1.1"><path d="M0 224L21.5 220.5C43 217 86 210 128.8 218.5C171.7 227 214.3 251 257.2 254.3C300 257.7 343 240.3 385.8 231.5C428.7 222.7 471.3 222.3 514.2 230.2C557 238 600 254 642.8 261.3C685.7 268.7 728.3 267.3 771.2 256.3C814 245.3 857 224.7 878.5 214.3L900 204L900 301L878.5 301C857 301 814 301 771.2 301C728.3 301 685.7 301 642.8 301C600 301 557 301 514.2 301C471.3 301 428.7 301 385.8 301C343 301 300 301 257.2 301C214.3 301 171.7 301 128.8 301C86 301 43 301 21.5 301L0 301Z" fill="#0D1B2A" stroke-linecap="round" stroke-linejoin="miter"></path></svg>