<?xml version="1.0" standalone="no"?><svg xmlns="http://www.w3.org/2000/svg" viewBox="0 0 1440 320"><path fill="#0D1B2A" fill-opacity="1" d="M0,96L40,106.7C80,117,160,139,240,154.7C320,171,400,181,480,165.3C560,149,640,107,720,112C800,117,880,171,960,160C1040,149,1120,75,1200,48C1280,21,1360,43,1400,53.3L1440,64L1440,320L1400,320C1360,320,1280,320,1200,320C1120,320,1040,320,960,320C880,320,800,320,720,320C640,320,560,320,480,320C400,320,320,320,240,320C160,320,80,320,40,320L0,320Z"></path></svg>